<?xml version="1.0" standalone="no"?>
<!DOCTYPE svg PUBLIC "-//W3C//DTD SVG 20010904//EN"
 "http://www.w3.org/TR/2001/REC-SVG-20010904/DTD/svg10.dtd">
<svg version="1.0" xmlns="http://www.w3.org/2000/svg"
 width="849.000000pt" height="294.000000pt" viewBox="0 0 849.000000 294.000000"
 preserveAspectRatio="xMidYMid meet">

<g transform="translate(0.000000,294.000000) scale(0.100000,-0.100000)"
fill="#000000" stroke="none">
<path d="M1603 2751 c-70 -55 -81 -76 -54 -105 12 -12 21 -29 21 -37 0 -8 6
-23 13 -34 23 -34 97 -271 97 -309 0 -11 -48 -6 -75 8 -16 8 -60 20 -99 27
-72 12 -110 34 -119 69 -4 14 6 23 43 39 34 15 52 30 64 55 22 46 20 61 -8 79
-15 10 -25 29 -30 56 -5 33 -15 47 -63 85 -63 50 -120 73 -198 82 -44 5 -60 1
-135 -36 -90 -44 -134 -79 -153 -120 -13 -26 -13 -201 -2 -342 7 -86 10 -81
-83 -156 -23 -18 -54 -54 -69 -80 -15 -26 -66 -96 -112 -157 -117 -154 -158
-250 -118 -283 7 -6 57 -18 111 -28 123 -21 265 -16 316 11 26 13 58 18 133
19 115 1 122 -4 115 -89 -3 -35 0 -55 10 -64 9 -9 11 -22 6 -40 -4 -14 -8 -43
-9 -63 -2 -21 -15 -58 -29 -82 -14 -25 -26 -56 -26 -70 0 -32 -7 -36 -82 -46
-34 -5 -64 -14 -68 -21 -4 -6 -13 -9 -18 -5 -15 9 -39 -31 -48 -79 -11 -64
-15 -67 -57 -45 -44 24 -58 26 -31 4 19 -15 19 -16 0 -9 -18 5 -18 4 -5 -12 8
-10 14 -29 14 -43 0 -22 -5 -26 -40 -30 -47 -7 -65 -16 -61 -33 1 -7 1 -9 -1
-4 -3 4 -28 7 -57 7 -31 0 -67 8 -90 19 l-37 20 -36 -25 c-20 -13 -48 -24 -63
-24 -15 0 -52 -5 -84 -11 -42 -9 -63 -9 -82 0 -21 9 -24 9 -22 -5 4 -25 -22
-29 -29 -5 -6 24 -21 27 -49 7 -11 -8 -31 -16 -44 -18 -24 -3 -25 -5 -25 -87
1 -106 9 -113 115 -110 78 3 160 -7 160 -20 0 -4 -15 -22 -34 -40 -34 -33 -83
-127 -72 -138 3 -3 10 5 15 19 5 13 17 30 26 38 16 14 17 13 10 -10 -4 -14
-12 -31 -17 -37 -8 -10 -5 -13 9 -13 13 0 26 15 41 45 22 45 49 63 37 25 -14
-43 -32 -145 -28 -153 7 -12 47 55 45 73 -3 13 -2 13 8 0 9 -13 11 -13 20 0 5
8 17 38 26 65 18 53 34 71 46 52 6 -9 8 -8 8 3 1 34 15 41 46 25 26 -13 30
-13 40 0 9 12 18 13 36 6 26 -10 50 2 61 32 5 13 18 17 54 17 61 -1 115 -27
124 -60 7 -25 7 -25 8 3 1 16 5 26 11 22 6 -3 13 1 16 9 10 26 69 39 122 28
26 -6 54 -11 62 -11 8 0 31 -2 50 -5 19 -3 39 -5 43 -5 5 -1 6 -11 2 -23 l-6
-23 18 22 c10 12 30 25 46 28 15 4 27 14 27 21 0 20 27 29 44 15 10 -9 15 -9
18 -1 6 20 73 -3 76 -26 5 -33 38 -68 57 -60 16 6 16 8 0 34 -10 15 -27 35
-37 46 -11 10 -18 20 -16 22 2 2 55 -1 117 -6 82 -7 119 -14 132 -26 13 -11
27 -15 49 -10 16 3 44 9 62 12 24 5 34 2 45 -12 11 -15 15 -16 22 -5 6 9 32
13 95 12 59 -1 86 3 86 11 0 6 8 4 19 -7 21 -18 105 -28 131 -15 8 4 37 1 63
-8 30 -10 51 -12 55 -6 9 13 159 18 175 6 19 -14 56 -21 63 -11 3 5 25 9 49 9
37 0 48 5 61 25 25 38 29 105 9 164 -20 60 -36 67 -128 56 -90 -10 -174 -6
-210 10 -18 8 -51 19 -74 25 -24 6 -43 14 -43 18 0 5 12 24 26 43 41 55 64
106 64 141 -1 27 -2 30 -11 16 -16 -28 -32 -22 -26 11 3 16 1 33 -6 40 -7 7
-12 40 -13 74 -1 79 -18 139 -41 152 -10 5 -48 40 -85 77 -69 69 -124 164
-148 256 -11 41 -23 52 -35 32 -4 -6 -11 -8 -16 -4 -6 4 -7 10 0 17 5 7 9 16
9 20 0 5 4 12 8 15 4 4 4 2 0 -5 -3 -6 -1 -15 5 -19 8 -4 9 3 4 27 -13 64 -16
72 -28 60 -19 -19 -24 -13 -46 49 -12 33 -32 70 -44 82 -12 11 -17 18 -12 15
6 -3 17 -2 24 2 19 12 5 48 -21 55 -24 6 -51 -11 -42 -25 3 -5 -15 -8 -39 -7
-35 2 -43 6 -35 15 6 7 8 19 5 27 -8 19 89 32 110 14 13 -10 19 -8 39 15 13
16 24 34 24 42 0 21 -64 71 -116 90 -27 10 -54 22 -60 27 -6 4 -14 54 -18 111
-4 56 -16 140 -28 186 -20 79 -20 85 -4 97 10 7 33 10 56 7 29 -4 48 0 73 16
23 14 51 21 83 21 72 0 79 -8 79 -87 0 -63 3 -72 38 -117 20 -27 37 -57 37
-67 0 -22 8 -23 46 -9 22 9 29 7 41 -10 8 -11 21 -20 29 -20 18 0 18 16 0 23
-26 10 -51 59 -56 111 -3 28 -11 51 -18 54 -9 3 -11 -3 -6 -23 6 -25 5 -26
-22 -19 -16 4 -30 8 -32 9 -10 9 -2 87 12 106 9 13 16 38 16 56 0 53 -30 66
-184 74 -72 4 -149 11 -171 14 -37 6 -45 3 -92 -34z m72 -81 c3 -5 1 -10 -5
-10 -6 0 -15 -11 -20 -25 -11 -30 -30 -33 -37 -5 -3 11 -9 20 -14 20 -5 0 -9
5 -9 11 0 6 6 9 13 6 8 -3 20 -1 28 4 19 12 36 11 44 -1z m408 -222 c-11 -19
-33 -6 -33 19 0 26 0 26 19 7 10 -10 17 -22 14 -26z m-1133 -167 c0 -6 -4 -13
-10 -16 -5 -3 -10 1 -10 9 0 9 5 16 10 16 6 0 10 -4 10 -9z m840 -127 c0 -31
-4 -44 -12 -42 -18 6 -29 58 -17 80 16 29 29 11 29 -38z m-339 -171 c-12 -26
-6 -47 7 -26 4 7 7 -34 6 -92 -2 -101 -3 -105 -39 -162 -21 -32 -45 -65 -55
-74 -15 -15 -18 -15 -28 2 -7 10 -12 27 -12 36 0 15 -8 18 -52 16 -29 -1 -61
-2 -70 -2 -11 -1 -15 -6 -12 -16 5 -12 2 -13 -17 -7 -16 6 -25 19 -27 36 -3
24 -22 38 -22 15 0 -22 -19 3 -25 34 -4 17 -17 42 -28 55 -16 17 -18 25 -9 34
9 9 8 16 -5 30 -15 17 -15 18 10 18 21 0 25 -4 20 -17 -6 -15 -4 -16 9 -5 14
11 16 5 20 -48 5 -68 14 -83 34 -56 7 11 27 21 44 23 32 3 79 31 80 47 0 4
-12 5 -27 0 -16 -4 -43 -8 -60 -10 -29 -2 -33 1 -33 22 0 16 10 30 30 43 35
21 30 34 -7 20 -25 -9 -25 -9 -18 28 4 21 9 41 11 45 6 9 64 -11 64 -23 0 -4
10 -13 21 -20 17 -8 23 -8 30 2 6 10 13 10 34 1 32 -15 68 -17 45 -2 -17 11
-17 12 38 39 39 20 43 25 38 49 -5 23 -5 24 5 8 8 -13 8 -25 0 -43z m-111 37
c0 -5 -7 -10 -16 -10 -8 0 -12 5 -9 10 3 6 10 10 16 10 5 0 9 -4 9 -10z m450
-34 c0 -2 3 -12 7 -22 4 -12 3 -15 -5 -10 -7 4 -10 2 -7 -6 9 -24 -10 -41 -32
-30 -26 14 -49 42 -35 42 6 0 9 7 6 15 -5 12 2 15 30 15 20 0 36 -2 36 -4z
m-720 -20 c0 -3 -4 -8 -10 -11 -5 -3 -10 -1 -10 4 0 6 5 11 10 11 6 0 10 -2
10 -4z m813 -77 c5 -3 9 -10 9 -15 0 -5 4 -19 9 -32 13 -33 11 -54 -3 -49 -7
2 -13 10 -13 18 0 8 -2 16 -5 19 -56 58 -62 68 -50 90 l12 22 16 -24 c9 -12
20 -26 25 -29z m-141 6 c3 0 9 -3 13 -7 4 -3 0 -5 -9 -4 -9 1 -22 8 -29 16
-10 10 -9 11 3 4 8 -5 18 -9 22 -9z m-47 -15 c3 -5 1 -10 -4 -10 -6 0 -11 5
-11 10 0 6 2 10 4 10 3 0 8 -4 11 -10z m185 -92 c0 -4 -8 -8 -17 -8 -21 1 -88
85 -79 99 6 9 96 -75 96 -91z m-116 40 c14 -13 9 -51 -5 -42 -5 3 -7 10 -3 15
3 5 0 16 -6 24 -15 18 -4 20 14 3z m186 -13 c0 -14 -4 -25 -10 -25 -11 0 -14
33 -3 43 11 11 13 8 13 -18z m-320 -104 c0 -6 -4 -12 -9 -15 -5 -3 -7 -23 -4
-45 3 -21 0 -47 -6 -59 -8 -15 -8 -23 0 -28 7 -4 10 -27 7 -63 -4 -44 0 -66
18 -106 13 -27 20 -53 16 -57 -10 -10 -174 -78 -188 -78 -13 0 -25 90 -13 103
4 5 5 35 2 68 -4 38 -2 64 6 73 8 10 9 16 1 21 -15 9 -12 31 10 80 16 35 32
51 82 79 67 38 78 42 78 27z m-173 -485 c26 -22 27 -25 12 -43 -9 -10 -16 -25
-16 -33 -1 -8 -4 -24 -8 -35 l-8 -20 16 20 c13 17 18 18 29 6 8 -8 8 -11 1 -7
-6 3 -14 2 -17 -3 -4 -5 5 -8 19 -7 36 5 89 -64 66 -87 -14 -14 -14 -37 -1
-37 6 0 10 8 10 18 1 15 2 15 11 -2 9 -14 8 -20 -1 -26 -7 -4 -9 -13 -6 -19 4
-6 3 -11 -3 -11 -5 0 -12 6 -15 13 -4 6 -4 2 -2 -10 2 -13 0 -23 -5 -23 -5 0
-9 5 -9 10 0 6 -5 10 -11 10 -5 0 -8 -4 -5 -9 3 -5 -12 -4 -34 1 -22 6 -40 15
-40 20 0 7 -16 8 -40 4 -28 -4 -40 -3 -40 6 0 6 -2 9 -5 6 -9 -8 6 -38 16 -32
5 3 9 0 9 -5 0 -16 -11 -13 -33 7 -11 9 -17 11 -13 5 9 -17 -6 -17 -22 -1 -10
10 -15 10 -22 -2 -7 -12 -11 -8 -16 17 -4 18 -10 30 -15 27 -12 -7 -12 -44 0
-44 13 0 23 -82 12 -93 -5 -5 -26 -6 -45 -3 -26 5 -37 13 -42 30 -5 21 -10 23
-52 20 -26 -2 -40 -1 -32 2 60 24 80 37 80 53 0 23 -23 34 -72 35 -20 1 -40 5
-45 10 -5 5 0 6 11 2 13 -4 17 -2 13 8 -7 18 18 42 28 26 3 -5 12 -10 18 -10
8 0 8 3 -2 9 -9 6 -10 11 -2 15 12 8 45 66 37 66 -3 0 -12 -13 -21 -30 -9 -16
-21 -30 -27 -30 -6 0 -4 8 5 18 10 10 17 23 17 28 0 12 40 47 41 36 2 -24 8
-45 15 -50 4 -4 4 1 1 10 -3 10 -2 20 3 23 4 3 10 0 12 -6 2 -7 15 -4 36 8 40
22 40 28 2 29 -24 1 -28 -1 -19 -12 9 -11 8 -14 -5 -14 -9 0 -16 5 -16 11 0 5
-4 7 -10 4 -5 -3 -10 -3 -10 2 0 13 49 32 52 21 2 -6 22 2 43 17 22 16 32 25
23 22 -34 -12 -7 21 30 37 53 22 87 19 119 -8z m87 -40 c11 -18 13 -27 4 -32
-12 -8 -38 22 -38 43 0 21 16 15 34 -11z m-38 -53 c-7 -7 -26 7 -26 19 0 6 6
6 15 -2 9 -7 13 -15 11 -17z m514 -87 c0 -5 -7 -1 -15 10 -8 10 -14 24 -14 29
0 6 6 1 14 -9 8 -11 15 -24 15 -30z m-366 9 c16 -25 14 -45 -4 -45 -15 0 -43
48 -35 60 10 16 21 12 39 -15z m506 -21 c0 -16 -16 -19 -25 -4 -8 13 4 32 16
25 5 -4 9 -13 9 -21z m-542 -16 c-6 -18 -25 -21 -31 -5 -3 8 3 13 15 14 10 1
18 -3 16 -9z m444 -43 c5 -11 -2 -6 -16 10 -14 17 -25 35 -25 40 0 11 25 -20
41 -50z m168 43 c0 -24 -33 -97 -41 -92 -17 10 -10 82 9 93 23 14 32 13 32 -1z
m-225 -58 c40 -42 28 -45 -20 -4 -24 20 -34 34 -24 34 8 0 28 -13 44 -30z
m-900 0 c4 -6 -7 -10 -25 -10 -18 0 -29 4 -25 10 3 6 15 10 25 10 10 0 22 -4
25 -10z m55 -10 c0 -5 -7 -10 -15 -10 -8 0 -15 5 -15 10 0 6 7 10 15 10 8 0
15 -4 15 -10z m140 -65 c0 -8 -2 -15 -4 -15 -2 0 -6 7 -10 15 -3 8 -1 15 4 15
6 0 10 -7 10 -15z m335 5 c3 -6 -1 -7 -9 -4 -18 7 -21 14 -7 14 6 0 13 -4 16
-10z m207 -16 c15 -10 -31 -33 -65 -34 -35 0 -67 16 -67 35 0 11 13 13 61 10
33 -3 65 -8 71 -11z m-1265 -16 c-3 -8 -6 -5 -6 6 -1 11 2 17 5 13 3 -3 4 -12
1 -19z m828 -35 l-16 -28 7 35 c8 44 17 60 22 38 2 -9 -4 -29 -13 -45z m560
37 c3 -5 -1 -10 -10 -10 -9 0 -13 5 -10 10 3 6 8 10 10 10 2 0 7 -4 10 -10z
m-1309 -22 c-9 -13 -21 -34 -26 -47 -6 -13 -13 -21 -17 -17 -10 10 29 86 45
86 12 0 12 -3 -2 -22z m-196 -3 c0 -8 -7 -15 -15 -15 -8 0 -15 7 -15 15 0 8 7
15 15 15 8 0 15 -7 15 -15z m675 6 c8 -14 -10 -22 -30 -15 -13 5 -14 8 -3 15
17 11 26 11 33 0z m-912 -15 c4 -10 1 -13 -8 -9 -8 3 -12 9 -9 14 7 12 11 11
17 -5z m987 -6 c0 -5 -7 -10 -16 -10 -8 0 -12 5 -9 10 3 6 10 10 16 10 5 0 9
-4 9 -10z m256 -27 c-10 -10 -19 5 -10 18 6 11 8 11 12 0 2 -7 1 -15 -2 -18z
m-381 -13 c9 -16 11 -30 6 -30 -11 0 -31 32 -31 49 0 19 9 12 25 -19z m1325
-60 c12 -23 13 -40 2 -40 -8 0 -72 85 -72 96 0 10 60 -38 70 -56z m-1590 20
c0 -5 -4 -10 -10 -10 -5 0 -10 5 -10 10 0 6 5 10 10 10 6 0 10 -4 10 -10z
m308 -28 c2 -7 -3 -12 -12 -12 -9 0 -16 7 -16 16 0 17 22 14 28 -4z m429 -28
c-9 -9 -28 6 -21 18 4 6 10 6 17 -1 6 -6 8 -13 4 -17z m743 -15 c17 -30 6 -34
-14 -4 -9 14 -12 25 -7 25 6 0 15 -9 21 -21z m-1590 -9 c0 -5 -5 -10 -11 -10
-5 0 -7 5 -4 10 3 6 8 10 11 10 2 0 4 -4 4 -10z"/>
<path d="M1420 1893 c-37 -25 -41 -36 -20 -55 25 -24 30 -23 30 5 0 13 5 28
11 34 21 21 5 34 -21 16z"/>
<path d="M1317 1839 c-3 -13 -1 -19 6 -16 15 5 22 37 9 37 -5 0 -12 -9 -15
-21z"/>
<path d="M1354 1765 c-10 -8 -41 -15 -69 -15 -28 0 -59 -7 -69 -15 -11 -8 -28
-15 -38 -15 -10 0 -18 -4 -18 -10 0 -14 48 -12 52 2 3 7 25 12 54 13 27 1 59
7 71 13 26 15 46 16 38 2 -3 -5 -2 -10 3 -10 16 0 22 28 8 39 -9 8 -18 7 -32
-4z"/>
<path d="M1406 1747 c-8 -31 -7 -39 3 -33 12 8 21 45 11 51 -4 3 -10 -5 -14
-18z"/>
<path d="M1340 1190 c8 -5 24 -10 34 -10 26 0 18 6 -19 14 -22 5 -26 4 -15 -4z"/>
<path d="M1435 1180 c4 -6 11 -8 16 -5 14 9 11 15 -7 15 -8 0 -12 -5 -9 -10z"/>
<path d="M1421 1136 c-1 -43 0 -43 19 -7 6 13 7 21 2 17 -6 -3 -13 2 -15 11
-3 10 -5 0 -6 -21z"/>
<path d="M1168 1070 c-3 -14 -9 -33 -13 -42 -4 -11 -3 -18 4 -18 6 0 10 3 9 8
0 4 2 15 6 24 4 9 6 25 4 35 -3 14 -5 13 -10 -7z"/>
<path d="M1520 1058 c0 -9 7 -19 16 -22 15 -6 15 -4 3 11 -7 10 -15 20 -16 22
-2 2 -3 -3 -3 -11z"/>
<path d="M1096 1005 c4 -8 8 -15 10 -15 2 0 4 7 4 15 0 8 -4 15 -10 15 -5 0
-7 -7 -4 -15z"/>
<path d="M1335 1010 c3 -5 8 -10 11 -10 2 0 4 5 4 10 0 6 -5 10 -11 10 -5 0
-7 -4 -4 -10z"/>
<path d="M1285 970 c3 -5 8 -10 11 -10 2 0 4 5 4 10 0 6 -5 10 -11 10 -5 0 -7
-4 -4 -10z"/>
<path d="M1521 964 c0 -11 3 -14 6 -6 3 7 2 16 -1 19 -3 4 -6 -2 -5 -13z"/>
<path d="M1221 954 c0 -11 3 -14 6 -6 3 7 2 16 -1 19 -3 4 -6 -2 -5 -13z"/>
<path d="M1190 924 c0 -8 5 -12 10 -9 6 3 10 10 10 16 0 5 -4 9 -10 9 -5 0
-10 -7 -10 -16z"/>
<path d="M6020 2361 c0 -5 5 -13 10 -16 6 -3 10 -2 10 4 0 5 -4 13 -10 16 -5
3 -10 2 -10 -4z"/>
<path d="M2177 2348 c-8 -22 -75 -51 -108 -46 -24 4 -29 1 -29 -16 1 -12 9
-39 20 -61 11 -22 19 -46 20 -52 0 -7 12 -13 26 -13 27 0 84 -48 84 -71 0 -8
-7 -2 -16 11 -23 34 -44 50 -66 50 -20 0 -20 0 6 -112 25 -105 33 -120 56
-113 11 4 20 2 20 -4 0 -15 23 -14 70 5 46 19 65 45 51 71 -36 70 -100 245
-101 276 0 10 -4 16 -9 13 -4 -3 -6 5 -4 18 6 30 -11 66 -20 44z"/>
<path d="M3993 2085 c0 -27 2 -38 4 -22 2 15 2 37 0 50 -2 12 -4 0 -4 -28z"/>
<path d="M1900 1935 c0 -13 32 -66 36 -62 6 6 -23 67 -31 67 -3 0 -5 -2 -5 -5z"/>
<path d="M1133 1417 c-10 -12 -31 -31 -48 -41 -34 -22 -45 -34 -85 -94 l-28
-43 25 -26 c30 -29 29 -31 77 77 16 36 42 80 57 98 26 29 37 52 25 52 -3 0
-13 -10 -23 -23z"/>
<path d="M1342 555 c0 -16 2 -22 5 -12 2 9 2 23 0 30 -3 6 -5 -1 -5 -18z"/>
<path d="M1361 534 c0 -11 3 -14 6 -6 3 7 2 16 -1 19 -3 4 -6 -2 -5 -13z"/>
<path d="M630 514 c1 -5 6 -19 14 -32 11 -21 14 -22 26 -7 10 12 10 19 2 27
-7 7 -12 8 -12 4 0 -5 -7 -3 -15 4 -8 7 -15 9 -15 4z"/>
<path d="M382 441 c-6 -19 -12 -43 -11 -55 0 -16 4 -13 15 13 8 18 14 43 12
55 -3 17 -6 15 -16 -13z"/>
<path d="M521 454 c0 -11 3 -14 6 -6 3 7 2 16 -1 19 -3 4 -6 -2 -5 -13z"/>
<path d="M305 409 c-4 -6 -4 -13 -1 -16 3 -4 6 -1 6 6 0 8 6 11 16 7 8 -3 12
-2 9 4 -8 13 -22 13 -30 -1z"/>
</g>
</svg>
